<svg xmlns="http://www.w3.org/2000/svg" viewBox="270 280 760 700">
<!-- Clean vector outline traced from the supplied launcher emblem. -->
<g fill="#fff">
<path d="M361 837 C311 796 285 722 286 640 C290 451 441 295 628 295 C729 295 819 337 883 410 Q897 426 881 439 L829 491 Q810 507 796 488 C753 442 698 418 637 419 C510 419 406 523 407 651 C407 678 412 702 423 723 Z"/>
<path d="M436 754 Q447 738 463 752 C508 804 568 831 637 831 C731 831 813 777 850 697 Q857 682 875 682 L946 682 Q975 682 969 711 C934 854 801 962 641 962 C538 962 440 919 377 849 Q365 837 375 824 Z"/>
<path d="M642 523 L976 523 C1002 523 1017 538 1016 562 C1015 585 1000 598 976 598 L938 598 C908 598 885 606 869 628 C850 651 829 670 793 671 L750 671 C721 670 708 690 691 709 C672 732 637 750 606 749 C548 750 501 708 500 652 C498 582 562 522 642 523 Z"/>
</g></svg>
